# xmcd
#
# Track frame offsets: 
#        150
#        36102
#        59347
#        81722
#        86445
#        106100
#        115382
#        126040
#        141130
#        149340
#        160575
#        167632
#        193760
#        229235
#        233477
#        248700
#        254035
#        258155
#        262972
#        272670
#        283407
#        288690
#
# Disc length: 4453 seconds
#
# Revision: 0
# Processed by: cddbd v1.5.2PL0 Copyright (c) Steve Scherf et al.
# Submitted via: ExactAudioCopy v0.95b3
#
DISCID=47116316
DTITLE=Genesis  - Genesis In The Beginning - Vol.5 - Definitive Editio
DTITLE=n Digital Remastered and Bonus Tracks  FLAC
DYEAR=1900
DGENRE=
TTITLE0=Phil Collins Drum Solo
TTITLE1=Firth Of Fifth-Take 1 Instrumental, Nice Guitar
TTITLE2=Firth Of Fifth-Take 2 Faster Version
TTITLE3=The Cinema Show Rehearsal Take 1
TTITLE4=After The Ordeal Fast Version
TTITLE5=Dancing With The Moonlit Knight-Take 1,Piano and Vocals
TTITLE6=Dancing With The Moonlit Knight-Take 2,Piano and Vocals
TTITLE7=Dancing With The Moonlit Knight-3.Whole Ensemble
TTITLE8=Dancing With The Moonlit Knight-Take 3,Piano and Vocals
TTITLE9=Dancing With The Moonlit Knight-Take 4,Vocals,Organ,Drums,Bass
TTITLE10=The Making Of The Battle Of Epping Forest-Differents Instrume
TTITLE10=ntal Takes 19
TTITLE11=The Making Of The Battle Of Epping Forest-Differents Instrume
TTITLE11=ntal Takes 20
TTITLE12=The Making Of The Battle Of Epping Forest-Differents Instrume
TTITLE12=ntal Takes 21
TTITLE13=The Making Of The Battle Of Epping Forest-Differents Instrume
TTITLE13=ntal Takes 22
TTITLE14=The Making Of The Battle Of Epping Forest-Differents Instrume
TTITLE14=ntal Takes 23
TTITLE15=The Making Of The Battle Of Epping Forest-Differents Instrume
TTITLE15=ntal Takes 24
TTITLE16=The Making Of The Battle Of Epping Forest-Differents Instrume
TTITLE16=ntal Takes 25
TTITLE17=The Making Of The Battle Of Epping Forest-Differents Instrume
TTITLE17=ntal Takes 26
TTITLE18=The Making Of The Battle Of Epping Forest-Differents Instrume
TTITLE18=ntal Takes 27
TTITLE19=The Making Of The Battle Of Epping Forest-Differents Instrume
TTITLE19=ntal Takes 28
TTITLE20=The Cinema Show Rehearsals Take 2
TTITLE21=The Light-Live At Le Ferme France,March 7Th 1971
EXTD=
EXTT0=
EXTT1=
EXTT2=
EXTT3=
EXTT4=
EXTT5=
EXTT6=
EXTT7=
EXTT8=
EXTT9=
EXTT10=
EXTT11=
EXTT12=
EXTT13=
EXTT14=
EXTT15=
EXTT16=
EXTT17=
EXTT18=
EXTT19=
EXTT20=
EXTT21=
PLAYORDER=
